<?xml version="1.0" encoding="utf-8" standalone="no"?>
<!DOCTYPE svg PUBLIC "-//W3C//DTD SVG 1.1//EN"
  "http://www.w3.org/Graphics/SVG/1.1/DTD/svg11.dtd">
<svg xmlns:xlink="http://www.w3.org/1999/xlink" width="576pt" height="259.2pt" viewBox="0 0 576 259.2" xmlns="http://www.w3.org/2000/svg" version="1.1">
 <metadata>
  <rdf:RDF xmlns:dc="http://purl.org/dc/elements/1.1/" xmlns:cc="http://creativecommons.org/ns#" xmlns:rdf="http://www.w3.org/1999/02/22-rdf-syntax-ns#">
   <cc:Work>
    <dc:type rdf:resource="http://purl.org/dc/dcmitype/StillImage"/>
    <dc:format>image/svg+xml</dc:format>
    <dc:creator>
     <cc:Agent>
      <dc:title>Matplotlib v3.9.4, https://matplotlib.org/</dc:title>
     </cc:Agent>
    </dc:creator>
   </cc:Work>
  </rdf:RDF>
 </metadata>
 <defs>
  <style type="text/css">*{stroke-linejoin: round; stroke-linecap: butt}</style>
 </defs>
 <g id="figure_1">
  <g id="patch_1">
   <path d="M 0 259.2
L 576 259.2
L 576 0
L 0 0
z
" style="fill: #ffffff"/>
  </g>
  <g id="axes_1">
   <g id="patch_2">
    <path d="M 48.62 217.24
L 285.39 217.24
L 285.39 26.16
L 48.62 26.16
z
" style="fill: #ffffff"/>
   </g>
   <g id="matplotlib.axis_1">
    <g id="xtick_1">
     <g id="line2d_1">
      <defs>
       <path id="m82375c42b1" d="M 0 0
L 0 3.5
" style="stroke: #000000; stroke-width: 0.8"/>
      </defs>
      <g>
       <use xlink:href="#m82375c42b1" x="59.382273" y="217.24" style="stroke: #000000; stroke-width: 0.8"/>
      </g>
     </g>
     <g id="text_1">
      <!-- 1.0 -->
      <g transform="translate(52.442429 232.199375) scale(0.1 -0.1)">
       <defs>
        <path id="NotoSansCJKjp-Regular-31" d="M 563 0
L 3136 0
L 3136 486
L 2195 486
L 2195 4691
L 1747 4691
C 1491 4544 1190 4435 774 4358
L 774 3987
L 1613 3987
L 1613 486
L 563 486
L 563 0
z
" transform="scale(0.015625)"/>
        <path id="NotoSansCJKjp-Regular-2e" d="M 890 -83
C 1120 -83 1312 96 1312 358
C 1312 627 1120 806 890 806
C 653 806 467 627 467 358
C 467 96 653 -83 890 -83
z
" transform="scale(0.015625)"/>
        <path id="NotoSansCJKjp-Regular-30" d="M 1779 -83
C 2669 -83 3238 723 3238 2362
C 3238 3987 2669 4774 1779 4774
C 883 4774 320 3987 320 2362
C 320 723 883 -83 1779 -83
z
M 1779 390
C 1248 390 883 986 883 2362
C 883 3731 1248 4314 1779 4314
C 2310 4314 2675 3731 2675 2362
C 2675 986 2310 390 1779 390
z
" transform="scale(0.015625)"/>
       </defs>
       <use xlink:href="#NotoSansCJKjp-Regular-31"/>
       <use xlink:href="#NotoSansCJKjp-Regular-2e" x="55.499985"/>
       <use xlink:href="#NotoSansCJKjp-Regular-30" x="83.299973"/>
      </g>
     </g>
    </g>
    <g id="xtick_2">
     <g id="line2d_2">
      <g>
       <use xlink:href="#m82375c42b1" x="95.256515" y="217.24" style="stroke: #000000; stroke-width: 0.8"/>
      </g>
     </g>
     <g id="text_2">
      <!-- 1.5 -->
      <g transform="translate(88.316671 232.199375) scale(0.1 -0.1)">
       <defs>
        <path id="NotoSansCJKjp-Regular-35" d="M 1677 -83
C 2464 -83 3213 499 3213 1523
C 3213 2560 2573 3021 1798 3021
C 1517 3021 1306 2950 1094 2835
L 1216 4192
L 2982 4192
L 2982 4691
L 704 4691
L 550 2502
L 864 2304
C 1133 2483 1331 2579 1645 2579
C 2234 2579 2618 2182 2618 1510
C 2618 826 2176 403 1619 403
C 1075 403 730 653 467 922
L 173 538
C 493 224 941 -83 1677 -83
z
" transform="scale(0.015625)"/>
       </defs>
       <use xlink:href="#NotoSansCJKjp-Regular-31"/>
       <use xlink:href="#NotoSansCJKjp-Regular-2e" x="55.499985"/>
       <use xlink:href="#NotoSansCJKjp-Regular-35" x="83.299973"/>
      </g>
     </g>
    </g>
    <g id="xtick_3">
     <g id="line2d_3">
      <g>
       <use xlink:href="#m82375c42b1" x="131.130758" y="217.24" style="stroke: #000000; stroke-width: 0.8"/>
      </g>
     </g>
     <g id="text_3">
      <!-- 2.0 -->
      <g transform="translate(124.190914 232.199375) scale(0.1 -0.1)">
       <defs>
        <path id="NotoSansCJKjp-Regular-32" d="M 282 0
L 3232 0
L 3232 506
L 1933 506
C 1696 506 1408 480 1165 461
C 2266 1504 3008 2458 3008 3398
C 3008 4230 2477 4774 1638 4774
C 1043 4774 634 4506 256 4090
L 595 3757
C 858 4070 1184 4301 1568 4301
C 2150 4301 2432 3910 2432 3373
C 2432 2566 1754 1632 282 346
L 282 0
z
" transform="scale(0.015625)"/>
       </defs>
       <use xlink:href="#NotoSansCJKjp-Regular-32"/>
       <use xlink:href="#NotoSansCJKjp-Regular-2e" x="55.499985"/>
       <use xlink:href="#NotoSansCJKjp-Regular-30" x="83.299973"/>
      </g>
     </g>
    </g>
    <g id="xtick_4">
     <g id="line2d_4">
      <g>
       <use xlink:href="#m82375c42b1" x="167.005" y="217.24" style="stroke: #000000; stroke-width: 0.8"/>
      </g>
     </g>
     <g id="text_4">
      <!-- 2.5 -->
      <g transform="translate(160.065156 232.199375) scale(0.1 -0.1)">
       <use xlink:href="#NotoSansCJKjp-Regular-32"/>
       <use xlink:href="#NotoSansCJKjp-Regular-2e" x="55.499985"/>
       <use xlink:href="#NotoSansCJKjp-Regular-35" x="83.299973"/>
      </g>
     </g>
    </g>
    <g id="xtick_5">
     <g id="line2d_5">
      <g>
       <use xlink:href="#m82375c42b1" x="202.879242" y="217.24" style="stroke: #000000; stroke-width: 0.8"/>
      </g>
     </g>
     <g id="text_5">
      <!-- 3.0 -->
      <g transform="translate(195.939399 232.199375) scale(0.1 -0.1)">
       <defs>
        <path id="NotoSansCJKjp-Regular-33" d="M 1683 -83
C 2522 -83 3194 416 3194 1254
C 3194 1901 2752 2310 2202 2445
L 2202 2477
C 2701 2650 3034 3034 3034 3603
C 3034 4346 2458 4774 1664 4774
C 1126 4774 710 4538 358 4218
L 672 3846
C 941 4115 1267 4301 1645 4301
C 2138 4301 2438 4006 2438 3558
C 2438 3053 2112 2662 1139 2662
L 1139 2214
C 2227 2214 2598 1843 2598 1274
C 2598 736 2208 403 1645 403
C 1114 403 762 659 486 941
L 186 563
C 493 224 954 -83 1683 -83
z
" transform="scale(0.015625)"/>
       </defs>
       <use xlink:href="#NotoSansCJKjp-Regular-33"/>
       <use xlink:href="#NotoSansCJKjp-Regular-2e" x="55.499985"/>
       <use xlink:href="#NotoSansCJKjp-Regular-30" x="83.299973"/>
      </g>
     </g>
    </g>
    <g id="xtick_6">
     <g id="line2d_6">
      <g>
       <use xlink:href="#m82375c42b1" x="238.753485" y="217.24" style="stroke: #000000; stroke-width: 0.8"/>
      </g>
     </g>
     <g id="text_6">
      <!-- 3.5 -->
      <g transform="translate(231.813641 232.199375) scale(0.1 -0.1)">
       <use xlink:href="#NotoSansCJKjp-Regular-33"/>
       <use xlink:href="#NotoSansCJKjp-Regular-2e" x="55.499985"/>
       <use xlink:href="#NotoSansCJKjp-Regular-35" x="83.299973"/>
      </g>
     </g>
    </g>
    <g id="xtick_7">
     <g id="line2d_7">
      <g>
       <use xlink:href="#m82375c42b1" x="274.627727" y="217.24" style="stroke: #000000; stroke-width: 0.8"/>
      </g>
     </g>
     <g id="text_7">
      <!-- 4.0 -->
      <g transform="translate(267.687884 232.199375) scale(0.1 -0.1)">
       <defs>
        <path id="NotoSansCJKjp-Regular-34" d="M 2176 0
L 2726 0
L 2726 1293
L 3354 1293
L 3354 1760
L 2726 1760
L 2726 4691
L 2080 4691
L 128 1677
L 128 1293
L 2176 1293
L 2176 0
z
M 2176 1760
L 736 1760
L 1805 3360
C 1939 3590 2067 3827 2182 4051
L 2208 4051
C 2195 3814 2176 3430 2176 3200
L 2176 1760
z
" transform="scale(0.015625)"/>
       </defs>
       <use xlink:href="#NotoSansCJKjp-Regular-34"/>
       <use xlink:href="#NotoSansCJKjp-Regular-2e" x="55.499985"/>
       <use xlink:href="#NotoSansCJKjp-Regular-30" x="83.299973"/>
      </g>
     </g>
    </g>
    <g id="text_8">
     <!-- 시도 -->
     <g transform="translate(157.805 246.449375) scale(0.1 -0.1)">
      <defs>
       <path id="NotoSansCJKjp-Regular-c2dc" d="M 4525 5293
L 4525 -506
L 5056 -506
L 5056 5293
L 4525 5293
z
M 1843 4794
L 1843 3757
C 1843 2656 1152 1549 288 1146
L 614 704
C 1293 1043 1850 1773 2118 2643
C 2387 1818 2944 1139 3597 819
L 3917 1242
C 3066 1632 2374 2701 2374 3757
L 2374 4794
L 1843 4794
z
" transform="scale(0.015625)"/>
       <path id="NotoSansCJKjp-Regular-b3c4" d="M 986 4826
L 986 2157
L 2669 2157
L 2669 672
L 320 672
L 320 230
L 5568 230
L 5568 672
L 3194 672
L 3194 2157
L 4960 2157
L 4960 2586
L 1517 2586
L 1517 4390
L 4902 4390
L 4902 4826
L 986 4826
z
" transform="scale(0.015625)"/>
      </defs>
      <use xlink:href="#NotoSansCJKjp-Regular-c2dc"/>
      <use xlink:href="#NotoSansCJKjp-Regular-b3c4" x="91.999985"/>
     </g>
    </g>
   </g>
   <g id="matplotlib.axis_2">
    <g id="ytick_1">
     <g id="line2d_8">
      <defs>
       <path id="m13616941af" d="M 0 0
L -3.5 0
" style="stroke: #000000; stroke-width: 0.8"/>
      </defs>
      <g>
       <use xlink:href="#m13616941af" x="48.62" y="217.24" style="stroke: #000000; stroke-width: 0.8"/>
      </g>
     </g>
     <g id="text_9">
      <!-- 0 -->
      <g transform="translate(36.07 221.219687) scale(0.1 -0.1)">
       <use xlink:href="#NotoSansCJKjp-Regular-30"/>
      </g>
     </g>
    </g>
    <g id="ytick_2">
     <g id="line2d_9">
      <g>
       <use xlink:href="#m13616941af" x="48.62" y="179.024" style="stroke: #000000; stroke-width: 0.8"/>
      </g>
     </g>
     <g id="text_10">
      <!-- 20 -->
      <g transform="translate(30.52 183.003688) scale(0.1 -0.1)">
       <use xlink:href="#NotoSansCJKjp-Regular-32"/>
       <use xlink:href="#NotoSansCJKjp-Regular-30" x="55.499985"/>
      </g>
     </g>
    </g>
    <g id="ytick_3">
     <g id="line2d_10">
      <g>
       <use xlink:href="#m13616941af" x="48.62" y="140.808" style="stroke: #000000; stroke-width: 0.8"/>
      </g>
     </g>
     <g id="text_11">
      <!-- 40 -->
      <g transform="translate(30.52 144.787688) scale(0.1 -0.1)">
       <use xlink:href="#NotoSansCJKjp-Regular-34"/>
       <use xlink:href="#NotoSansCJKjp-Regular-30" x="55.499985"/>
      </g>
     </g>
    </g>
    <g id="ytick_4">
     <g id="line2d_11">
      <g>
       <use xlink:href="#m13616941af" x="48.62" y="102.592" style="stroke: #000000; stroke-width: 0.8"/>
      </g>
     </g>
     <g id="text_12">
      <!-- 60 -->
      <g transform="translate(30.52 106.571688) scale(0.1 -0.1)">
       <defs>
        <path id="NotoSansCJKjp-Regular-36" d="M 1926 -83
C 2656 -83 3277 531 3277 1440
C 3277 2426 2765 2912 1971 2912
C 1606 2912 1197 2701 909 2349
C 934 3802 1466 4294 2118 4294
C 2400 4294 2682 4154 2861 3936
L 3194 4294
C 2931 4576 2579 4774 2093 4774
C 1184 4774 358 4077 358 2240
C 358 691 1030 -83 1926 -83
z
M 922 1882
C 1229 2317 1587 2477 1875 2477
C 2445 2477 2720 2074 2720 1440
C 2720 800 2374 378 1926 378
C 1338 378 986 909 922 1882
z
" transform="scale(0.015625)"/>
       </defs>
       <use xlink:href="#NotoSansCJKjp-Regular-36"/>
       <use xlink:href="#NotoSansCJKjp-Regular-30" x="55.499985"/>
      </g>
     </g>
    </g>
    <g id="ytick_5">
     <g id="line2d_12">
      <g>
       <use xlink:href="#m13616941af" x="48.62" y="64.376" style="stroke: #000000; stroke-width: 0.8"/>
      </g>
     </g>
     <g id="text_13">
      <!-- 80 -->
      <g transform="translate(30.52 68.355688) scale(0.1 -0.1)">
       <defs>
        <path id="NotoSansCJKjp-Regular-38" d="M 1792 -83
C 2669 -83 3258 448 3258 1126
C 3258 1773 2880 2125 2470 2362
L 2470 2394
C 2746 2611 3091 3034 3091 3526
C 3091 4250 2605 4762 1805 4762
C 1075 4762 518 4282 518 3571
C 518 3078 813 2726 1152 2490
L 1152 2464
C 723 2234 294 1792 294 1165
C 294 442 922 -83 1792 -83
z
M 2112 2547
C 1555 2765 1050 3014 1050 3571
C 1050 4026 1363 4326 1798 4326
C 2298 4326 2592 3962 2592 3494
C 2592 3149 2426 2829 2112 2547
z
M 1798 352
C 1235 352 813 717 813 1216
C 813 1664 1082 2035 1459 2278
C 2125 2010 2701 1779 2701 1146
C 2701 678 2342 352 1798 352
z
" transform="scale(0.015625)"/>
       </defs>
       <use xlink:href="#NotoSansCJKjp-Regular-38"/>
       <use xlink:href="#NotoSansCJKjp-Regular-30" x="55.499985"/>
      </g>
     </g>
    </g>
    <g id="ytick_6">
     <g id="line2d_13">
      <g>
       <use xlink:href="#m13616941af" x="48.62" y="26.16" style="stroke: #000000; stroke-width: 0.8"/>
      </g>
     </g>
     <g id="text_14">
      <!-- 100 -->
      <g transform="translate(24.97 30.139688) scale(0.1 -0.1)">
       <use xlink:href="#NotoSansCJKjp-Regular-31"/>
       <use xlink:href="#NotoSansCJKjp-Regular-30" x="55.499985"/>
       <use xlink:href="#NotoSansCJKjp-Regular-30" x="110.999969"/>
      </g>
     </g>
    </g>
    <g id="text_15">
     <!-- 점수 -->
     <g transform="translate(18.679375 130.9) rotate(-90) scale(0.1 -0.1)">
      <defs>
       <path id="NotoSansCJKjp-Regular-c810" d="M 1325 1619
L 1325 -422
L 5082 -422
L 5082 1619
L 1325 1619
z
M 4563 1197
L 4563 13
L 1850 13
L 1850 1197
L 4563 1197
z
M 4550 5293
L 4550 3846
L 3405 3846
L 3405 3405
L 4550 3405
L 4550 1907
L 5082 1907
L 5082 5293
L 4550 5293
z
M 506 4922
L 506 4486
L 1792 4486
L 1792 4275
C 1792 3456 1197 2682 339 2381
L 614 1958
C 1299 2208 1824 2739 2067 3398
C 2317 2803 2816 2323 3462 2086
L 3731 2509
C 2893 2810 2330 3533 2330 4275
L 2330 4486
L 3597 4486
L 3597 4922
L 506 4922
z
" transform="scale(0.015625)"/>
       <path id="NotoSansCJKjp-Regular-c218" d="M 2662 5088
L 2662 4762
C 2662 3942 1645 3245 589 3091
L 800 2662
C 1702 2810 2573 3309 2944 4013
C 3315 3309 4179 2810 5082 2662
L 5293 3091
C 4243 3245 3213 3955 3213 4762
L 3213 5088
L 2662 5088
z
M 320 2035
L 320 1594
L 2662 1594
L 2662 -499
L 3187 -499
L 3187 1594
L 5549 1594
L 5549 2035
L 320 2035
z
" transform="scale(0.015625)"/>
      </defs>
      <use xlink:href="#NotoSansCJKjp-Regular-c810"/>
      <use xlink:href="#NotoSansCJKjp-Regular-c218" x="91.999985"/>
     </g>
    </g>
   </g>
   <g id="line2d_14">
    <path d="M 59.382273 64.376
L 131.130758 60.5544
L 202.879242 62.4652
L 274.627727 58.6436
" clip-path="url(#p558512a25c)" style="fill: none; stroke: #1f77b4; stroke-width: 1.5; stroke-linecap: square"/>
    <defs>
     <path id="mca828d2906" d="M 0 3
C 0.795609 3 1.55874 2.683901 2.12132 2.12132
C 2.683901 1.55874 3 0.795609 3 0
C 3 -0.795609 2.683901 -1.55874 2.12132 -2.12132
C 1.55874 -2.683901 0.795609 -3 0 -3
C -0.795609 -3 -1.55874 -2.683901 -2.12132 -2.12132
C -2.683901 -1.55874 -3 -0.795609 -3 0
C -3 0.795609 -2.683901 1.55874 -2.12132 2.12132
C -1.55874 2.683901 -0.795609 3 0 3
z
" style="stroke: #1f77b4"/>
    </defs>
    <g clip-path="url(#p558512a25c)">
     <use xlink:href="#mca828d2906" x="59.382273" y="64.376" style="fill: #1f77b4; stroke: #1f77b4"/>
     <use xlink:href="#mca828d2906" x="131.130758" y="60.5544" style="fill: #1f77b4; stroke: #1f77b4"/>
     <use xlink:href="#mca828d2906" x="202.879242" y="62.4652" style="fill: #1f77b4; stroke: #1f77b4"/>
     <use xlink:href="#mca828d2906" x="274.627727" y="58.6436" style="fill: #1f77b4; stroke: #1f77b4"/>
    </g>
   </g>
   <g id="patch_3">
    <path d="M 48.62 217.24
L 48.62 26.16
" style="fill: none; stroke: #000000; stroke-width: 0.8; stroke-linejoin: miter; stroke-linecap: square"/>
   </g>
   <g id="patch_4">
    <path d="M 285.39 217.24
L 285.39 26.16
" style="fill: none; stroke: #000000; stroke-width: 0.8; stroke-linejoin: miter; stroke-linecap: square"/>
   </g>
   <g id="patch_5">
    <path d="M 48.62 217.24
L 285.39 217.24
" style="fill: none; stroke: #000000; stroke-width: 0.8; stroke-linejoin: miter; stroke-linecap: square"/>
   </g>
   <g id="patch_6">
    <path d="M 48.62 26.16
L 285.39 26.16
" style="fill: none; stroke: #000000; stroke-width: 0.8; stroke-linejoin: miter; stroke-linecap: square"/>
   </g>
   <g id="text_16">
    <!-- 전체 범위: 0~100 -->
    <g transform="translate(123.918437 20.16) scale(0.12 -0.12)">
     <defs>
      <path id="NotoSansCJKjp-Regular-c804" d="M 4550 5286
L 4550 3693
L 3386 3693
L 3386 3258
L 4550 3258
L 4550 1043
L 5082 1043
L 5082 5286
L 4550 5286
z
M 1389 1421
L 1389 -371
L 5242 -371
L 5242 64
L 1914 64
L 1914 1421
L 1389 1421
z
M 506 4819
L 506 4384
L 1792 4384
L 1792 4102
C 1792 3277 1197 2509 339 2208
L 614 1779
C 1299 2035 1824 2566 2067 3226
C 2317 2630 2816 2150 3462 1914
L 3731 2336
C 2893 2630 2330 3360 2330 4102
L 2330 4384
L 3597 4384
L 3597 4819
L 506 4819
z
" transform="scale(0.015625)"/>
      <path id="NotoSansCJKjp-Regular-ccb4" d="M 4723 5293
L 4723 -499
L 5229 -499
L 5229 5293
L 4723 5293
z
M 3565 5158
L 3565 3008
L 2682 3008
L 2682 2566
L 3565 2566
L 3565 -198
L 4064 -198
L 4064 5158
L 3565 5158
z
M 1504 5082
L 1504 4224
L 429 4224
L 429 3789
L 1504 3789
L 1504 3507
C 1504 2560 1056 1549 269 1088
L 582 685
C 1152 1030 1562 1670 1760 2406
C 1971 1715 2381 1126 2944 813
L 3245 1210
C 2470 1638 2010 2586 2010 3507
L 2010 3789
L 3072 3789
L 3072 4224
L 2010 4224
L 2010 5082
L 1504 5082
z
" transform="scale(0.015625)"/>
      <path id="NotoSansCJKjp-Regular-20" transform="scale(0.015625)"/>
      <path id="NotoSansCJKjp-Regular-bc94" d="M 1133 3629
L 2694 3629
L 2694 2688
L 1133 2688
L 1133 3629
z
M 1325 1645
L 1325 -422
L 5082 -422
L 5082 1645
L 1325 1645
z
M 4563 1216
L 4563 13
L 1850 13
L 1850 1216
L 4563 1216
z
M 4550 5293
L 4550 3827
L 3219 3827
L 3219 4966
L 2694 4966
L 2694 4051
L 1133 4051
L 1133 4966
L 602 4966
L 602 2253
L 3219 2253
L 3219 3386
L 4550 3386
L 4550 1933
L 5082 1933
L 5082 5293
L 4550 5293
z
" transform="scale(0.015625)"/>
      <path id="NotoSansCJKjp-Regular-c704" d="M 2208 5018
C 1350 5018 736 4538 736 3827
C 736 3123 1350 2637 2208 2637
C 3072 2637 3686 3123 3686 3827
C 3686 4538 3072 5018 2208 5018
z
M 2208 4582
C 2778 4582 3181 4275 3181 3827
C 3181 3379 2778 3078 2208 3078
C 1651 3078 1248 3379 1248 3827
C 1248 4275 1651 4582 2208 4582
z
M 4538 5286
L 4538 -499
L 5062 -499
L 5062 5286
L 4538 5286
z
M 378 1702
C 851 1702 1402 1709 1978 1734
L 1978 -320
L 2509 -320
L 2509 1766
C 3059 1805 3616 1862 4160 1965
L 4122 2362
C 2854 2170 1382 2150 307 2150
L 378 1702
z
" transform="scale(0.015625)"/>
      <path id="NotoSansCJKjp-Regular-3a" d="M 890 2496
C 1120 2496 1312 2675 1312 2944
C 1312 3206 1120 3392 890 3392
C 653 3392 467 3206 467 2944
C 467 2675 653 2496 890 2496
z
M 890 -83
C 1120 -83 1312 96 1312 358
C 1312 627 1120 806 890 806
C 653 806 467 627 467 358
C 467 96 653 -83 890 -83
z
" transform="scale(0.015625)"/>
      <path id="NotoSansCJKjp-Regular-7e" d="M 2406 1837
C 2714 1837 3034 2029 3296 2477
L 2970 2714
C 2803 2406 2624 2278 2419 2278
C 2016 2278 1715 2886 1152 2886
C 845 2886 518 2688 262 2240
L 589 2010
C 749 2317 928 2445 1133 2445
C 1542 2445 1843 1837 2406 1837
z
" transform="scale(0.015625)"/>
     </defs>
     <use xlink:href="#NotoSansCJKjp-Regular-c804"/>
     <use xlink:href="#NotoSansCJKjp-Regular-ccb4" x="91.999985"/>
     <use xlink:href="#NotoSansCJKjp-Regular-20" x="183.999969"/>
     <use xlink:href="#NotoSansCJKjp-Regular-bc94" x="206.399963"/>
     <use xlink:href="#NotoSansCJKjp-Regular-c704" x="298.399948"/>
     <use xlink:href="#NotoSansCJKjp-Regular-3a" x="390.399933"/>
     <use xlink:href="#NotoSansCJKjp-Regular-20" x="418.199921"/>
     <use xlink:href="#NotoSansCJKjp-Regular-30" x="440.599915"/>
     <use xlink:href="#NotoSansCJKjp-Regular-7e" x="496.099899"/>
     <use xlink:href="#NotoSansCJKjp-Regular-31" x="551.599884"/>
     <use xlink:href="#NotoSansCJKjp-Regular-30" x="607.099869"/>
     <use xlink:href="#NotoSansCJKjp-Regular-30" x="662.599854"/>
    </g>
   </g>
  </g>
  <g id="axes_2">
   <g id="patch_7">
    <path d="M 328.43 217.24
L 565.2 217.24
L 565.2 26.16
L 328.43 26.16
z
" style="fill: #ffffff"/>
   </g>
   <g id="matplotlib.axis_3">
    <g id="xtick_8">
     <g id="line2d_15">
      <g>
       <use xlink:href="#m82375c42b1" x="339.192273" y="217.24" style="stroke: #000000; stroke-width: 0.8"/>
      </g>
     </g>
     <g id="text_17">
      <!-- 1.0 -->
      <g transform="translate(332.252429 232.199375) scale(0.1 -0.1)">
       <use xlink:href="#NotoSansCJKjp-Regular-31"/>
       <use xlink:href="#NotoSansCJKjp-Regular-2e" x="55.499985"/>
       <use xlink:href="#NotoSansCJKjp-Regular-30" x="83.299973"/>
      </g>
     </g>
    </g>
    <g id="xtick_9">
     <g id="line2d_16">
      <g>
       <use xlink:href="#m82375c42b1" x="375.066515" y="217.24" style="stroke: #000000; stroke-width: 0.8"/>
      </g>
     </g>
     <g id="text_18">
      <!-- 1.5 -->
      <g transform="translate(368.126671 232.199375) scale(0.1 -0.1)">
       <use xlink:href="#NotoSansCJKjp-Regular-31"/>
       <use xlink:href="#NotoSansCJKjp-Regular-2e" x="55.499985"/>
       <use xlink:href="#NotoSansCJKjp-Regular-35" x="83.299973"/>
      </g>
     </g>
    </g>
    <g id="xtick_10">
     <g id="line2d_17">
      <g>
       <use xlink:href="#m82375c42b1" x="410.940758" y="217.24" style="stroke: #000000; stroke-width: 0.8"/>
      </g>
     </g>
     <g id="text_19">
      <!-- 2.0 -->
      <g transform="translate(404.000914 232.199375) scale(0.1 -0.1)">
       <use xlink:href="#NotoSansCJKjp-Regular-32"/>
       <use xlink:href="#NotoSansCJKjp-Regular-2e" x="55.499985"/>
       <use xlink:href="#NotoSansCJKjp-Regular-30" x="83.299973"/>
      </g>
     </g>
    </g>
    <g id="xtick_11">
     <g id="line2d_18">
      <g>
       <use xlink:href="#m82375c42b1" x="446.815" y="217.24" style="stroke: #000000; stroke-width: 0.8"/>
      </g>
     </g>
     <g id="text_20">
      <!-- 2.5 -->
      <g transform="translate(439.875156 232.199375) scale(0.1 -0.1)">
       <use xlink:href="#NotoSansCJKjp-Regular-32"/>
       <use xlink:href="#NotoSansCJKjp-Regular-2e" x="55.499985"/>
       <use xlink:href="#NotoSansCJKjp-Regular-35" x="83.299973"/>
      </g>
     </g>
    </g>
    <g id="xtick_12">
     <g id="line2d_19">
      <g>
       <use xlink:href="#m82375c42b1" x="482.689242" y="217.24" style="stroke: #000000; stroke-width: 0.8"/>
      </g>
     </g>
     <g id="text_21">
      <!-- 3.0 -->
      <g transform="translate(475.749399 232.199375) scale(0.1 -0.1)">
       <use xlink:href="#NotoSansCJKjp-Regular-33"/>
       <use xlink:href="#NotoSansCJKjp-Regular-2e" x="55.499985"/>
       <use xlink:href="#NotoSansCJKjp-Regular-30" x="83.299973"/>
      </g>
     </g>
    </g>
    <g id="xtick_13">
     <g id="line2d_20">
      <g>
       <use xlink:href="#m82375c42b1" x="518.563485" y="217.24" style="stroke: #000000; stroke-width: 0.8"/>
      </g>
     </g>
     <g id="text_22">
      <!-- 3.5 -->
      <g transform="translate(511.623641 232.199375) scale(0.1 -0.1)">
       <use xlink:href="#NotoSansCJKjp-Regular-33"/>
       <use xlink:href="#NotoSansCJKjp-Regular-2e" x="55.499985"/>
       <use xlink:href="#NotoSansCJKjp-Regular-35" x="83.299973"/>
      </g>
     </g>
    </g>
    <g id="xtick_14">
     <g id="line2d_21">
      <g>
       <use xlink:href="#m82375c42b1" x="554.437727" y="217.24" style="stroke: #000000; stroke-width: 0.8"/>
      </g>
     </g>
     <g id="text_23">
      <!-- 4.0 -->
      <g transform="translate(547.497884 232.199375) scale(0.1 -0.1)">
       <use xlink:href="#NotoSansCJKjp-Regular-34"/>
       <use xlink:href="#NotoSansCJKjp-Regular-2e" x="55.499985"/>
       <use xlink:href="#NotoSansCJKjp-Regular-30" x="83.299973"/>
      </g>
     </g>
    </g>
    <g id="text_24">
     <!-- 시도 -->
     <g transform="translate(437.615 246.449375) scale(0.1 -0.1)">
      <use xlink:href="#NotoSansCJKjp-Regular-c2dc"/>
      <use xlink:href="#NotoSansCJKjp-Regular-b3c4" x="91.999985"/>
     </g>
    </g>
   </g>
   <g id="matplotlib.axis_4">
    <g id="ytick_7">
     <g id="line2d_22">
      <g>
       <use xlink:href="#m13616941af" x="328.43" y="217.24" style="stroke: #000000; stroke-width: 0.8"/>
      </g>
     </g>
     <g id="text_25">
      <!-- 79 -->
      <g transform="translate(310.33 221.219687) scale(0.1 -0.1)">
       <defs>
        <path id="NotoSansCJKjp-Regular-37" d="M 1267 0
L 1875 0
C 1952 1837 2150 2931 3251 4339
L 3251 4691
L 314 4691
L 314 4192
L 2592 4192
C 1670 2912 1350 1779 1267 0
z
" transform="scale(0.015625)"/>
        <path id="NotoSansCJKjp-Regular-39" d="M 1504 -83
C 2381 -83 3206 646 3206 2547
C 3206 4038 2528 4774 1626 4774
C 896 4774 282 4166 282 3251
C 282 2285 794 1779 1574 1779
C 1965 1779 2368 2003 2656 2349
C 2611 896 2086 403 1485 403
C 1178 403 896 538 691 762
L 371 397
C 634 122 992 -83 1504 -83
z
M 2650 2842
C 2336 2394 1984 2214 1670 2214
C 1114 2214 832 2624 832 3251
C 832 3898 1178 4320 1632 4320
C 2227 4320 2586 3808 2650 2842
z
" transform="scale(0.015625)"/>
       </defs>
       <use xlink:href="#NotoSansCJKjp-Regular-37"/>
       <use xlink:href="#NotoSansCJKjp-Regular-39" x="55.499985"/>
      </g>
     </g>
    </g>
    <g id="ytick_8">
     <g id="line2d_23">
      <g>
       <use xlink:href="#m13616941af" x="328.43" y="179.024" style="stroke: #000000; stroke-width: 0.8"/>
      </g>
     </g>
     <g id="text_26">
      <!-- 80 -->
      <g transform="translate(310.33 183.003688) scale(0.1 -0.1)">
       <use xlink:href="#NotoSansCJKjp-Regular-38"/>
       <use xlink:href="#NotoSansCJKjp-Regular-30" x="55.499985"/>
      </g>
     </g>
    </g>
    <g id="ytick_9">
     <g id="line2d_24">
      <g>
       <use xlink:href="#m13616941af" x="328.43" y="140.808" style="stroke: #000000; stroke-width: 0.8"/>
      </g>
     </g>
     <g id="text_27">
      <!-- 81 -->
      <g transform="translate(310.33 144.787688) scale(0.1 -0.1)">
       <use xlink:href="#NotoSansCJKjp-Regular-38"/>
       <use xlink:href="#NotoSansCJKjp-Regular-31" x="55.499985"/>
      </g>
     </g>
    </g>
    <g id="ytick_10">
     <g id="line2d_25">
      <g>
       <use xlink:href="#m13616941af" x="328.43" y="102.592" style="stroke: #000000; stroke-width: 0.8"/>
      </g>
     </g>
     <g id="text_28">
      <!-- 82 -->
      <g transform="translate(310.33 106.571687) scale(0.1 -0.1)">
       <use xlink:href="#NotoSansCJKjp-Regular-38"/>
       <use xlink:href="#NotoSansCJKjp-Regular-32" x="55.499985"/>
      </g>
     </g>
    </g>
    <g id="ytick_11">
     <g id="line2d_26">
      <g>
       <use xlink:href="#m13616941af" x="328.43" y="64.376" style="stroke: #000000; stroke-width: 0.8"/>
      </g>
     </g>
     <g id="text_29">
      <!-- 83 -->
      <g transform="translate(310.33 68.355687) scale(0.1 -0.1)">
       <use xlink:href="#NotoSansCJKjp-Regular-38"/>
       <use xlink:href="#NotoSansCJKjp-Regular-33" x="55.499985"/>
      </g>
     </g>
    </g>
    <g id="ytick_12">
     <g id="line2d_27">
      <g>
       <use xlink:href="#m13616941af" x="328.43" y="26.16" style="stroke: #000000; stroke-width: 0.8"/>
      </g>
     </g>
     <g id="text_30">
      <!-- 84 -->
      <g transform="translate(310.33 30.139688) scale(0.1 -0.1)">
       <use xlink:href="#NotoSansCJKjp-Regular-38"/>
       <use xlink:href="#NotoSansCJKjp-Regular-34" x="55.499985"/>
      </g>
     </g>
    </g>
    <g id="text_31">
     <!-- 점수 -->
     <g transform="translate(304.039375 130.9) rotate(-90) scale(0.1 -0.1)">
      <use xlink:href="#NotoSansCJKjp-Regular-c810"/>
      <use xlink:href="#NotoSansCJKjp-Regular-c218" x="91.999985"/>
     </g>
    </g>
   </g>
   <g id="line2d_28">
    <path d="M 339.192273 179.024
L 410.940758 102.592
L 482.689242 140.808
L 554.437727 64.376
" clip-path="url(#p04276ca1d7)" style="fill: none; stroke: #1f77b4; stroke-width: 1.5; stroke-linecap: square"/>
    <g clip-path="url(#p04276ca1d7)">
     <use xlink:href="#mca828d2906" x="339.192273" y="179.024" style="fill: #1f77b4; stroke: #1f77b4"/>
     <use xlink:href="#mca828d2906" x="410.940758" y="102.592" style="fill: #1f77b4; stroke: #1f77b4"/>
     <use xlink:href="#mca828d2906" x="482.689242" y="140.808" style="fill: #1f77b4; stroke: #1f77b4"/>
     <use xlink:href="#mca828d2906" x="554.437727" y="64.376" style="fill: #1f77b4; stroke: #1f77b4"/>
    </g>
   </g>
   <g id="patch_8">
    <path d="M 328.43 217.24
L 328.43 26.16
" style="fill: none; stroke: #000000; stroke-width: 0.8; stroke-linejoin: miter; stroke-linecap: square"/>
   </g>
   <g id="patch_9">
    <path d="M 565.2 217.24
L 565.2 26.16
" style="fill: none; stroke: #000000; stroke-width: 0.8; stroke-linejoin: miter; stroke-linecap: square"/>
   </g>
   <g id="patch_10">
    <path d="M 328.43 217.24
L 565.2 217.24
" style="fill: none; stroke: #000000; stroke-width: 0.8; stroke-linejoin: miter; stroke-linecap: square"/>
   </g>
   <g id="patch_11">
    <path d="M 328.43 26.16
L 565.2 26.16
" style="fill: none; stroke: #000000; stroke-width: 0.8; stroke-linejoin: miter; stroke-linecap: square"/>
   </g>
   <g id="text_32">
    <!-- 확대 범위: 79~84 -->
    <g transform="translate(403.728437 20.16) scale(0.12 -0.12)">
     <defs>
      <path id="NotoSansCJKjp-Regular-d655" d="M 998 1114
L 998 691
L 4275 691
L 4275 -499
L 4806 -499
L 4806 1114
L 998 1114
z
M 2093 3776
C 2611 3776 2938 3597 2938 3290
C 2938 2995 2611 2797 2093 2797
C 1574 2797 1248 2995 1248 3290
C 1248 3597 1574 3776 2093 3776
z
M 2093 4147
C 1280 4147 742 3821 742 3290
C 742 2816 1171 2509 1837 2445
L 1837 2022
C 1280 2003 749 2003 288 2003
L 352 1574
C 1363 1574 2733 1581 3968 1805
L 3930 2182
C 3430 2112 2893 2067 2362 2042
L 2362 2445
C 3021 2509 3443 2822 3443 3290
C 3443 3821 2906 4147 2093 4147
z
M 4275 5286
L 4275 1408
L 4806 1408
L 4806 3098
L 5651 3098
L 5651 3539
L 4806 3539
L 4806 5286
L 4275 5286
z
M 1837 5338
L 1837 4768
L 435 4768
L 435 4365
L 3757 4365
L 3757 4768
L 2362 4768
L 2362 5338
L 1837 5338
z
" transform="scale(0.015625)"/>
      <path id="NotoSansCJKjp-Regular-b300" d="M 3411 5165
L 3411 -198
L 3904 -198
L 3904 2534
L 4723 2534
L 4723 -499
L 5229 -499
L 5229 5293
L 4723 5293
L 4723 2970
L 3904 2970
L 3904 5165
L 3411 5165
z
M 525 4589
L 525 928
L 902 928
C 1773 928 2355 954 3046 1101
L 2995 1542
C 2368 1408 1824 1382 1056 1376
L 1056 4154
L 2675 4154
L 2675 4589
L 525 4589
z
" transform="scale(0.015625)"/>
     </defs>
     <use xlink:href="#NotoSansCJKjp-Regular-d655"/>
     <use xlink:href="#NotoSansCJKjp-Regular-b300" x="91.999985"/>
     <use xlink:href="#NotoSansCJKjp-Regular-20" x="183.999969"/>
     <use xlink:href="#NotoSansCJKjp-Regular-bc94" x="206.399963"/>
     <use xlink:href="#NotoSansCJKjp-Regular-c704" x="298.399948"/>
     <use xlink:href="#NotoSansCJKjp-Regular-3a" x="390.399933"/>
     <use xlink:href="#NotoSansCJKjp-Regular-20" x="418.199921"/>
     <use xlink:href="#NotoSansCJKjp-Regular-37" x="440.599915"/>
     <use xlink:href="#NotoSansCJKjp-Regular-39" x="496.099899"/>
     <use xlink:href="#NotoSansCJKjp-Regular-7e" x="551.599884"/>
     <use xlink:href="#NotoSansCJKjp-Regular-38" x="607.099869"/>
     <use xlink:href="#NotoSansCJKjp-Regular-34" x="662.599854"/>
    </g>
   </g>
  </g>
 </g>
 <defs>
  <clipPath id="p558512a25c">
   <rect x="48.62" y="26.16" width="236.77" height="191.08"/>
  </clipPath>
  <clipPath id="p04276ca1d7">
   <rect x="328.43" y="26.16" width="236.77" height="191.08"/>
  </clipPath>
 </defs>
</svg>
